<?xml version="1.0" standalone="no"?>
<!DOCTYPE svg PUBLIC "-//W3C//DTD SVG 1.1//EN" "http://www.w3.org/Graphics/SVG/1.1/DTD/svg11.dtd" >
<!--
2013-9-30: Created.
-->
<svg>
<metadata>
Created by iconfont
</metadata>
<defs>

<font id="iconfont" horiz-adv-x="1024" >
  <font-face
    font-family="iconfont"
    font-weight="500"
    font-stretch="normal"
    units-per-em="1024"
    ascent="896"
    descent="-128"
  />
    <missing-glyph />
    
    <glyph glyph-name="x" unicode="x" horiz-adv-x="1001"
d="M281 543q-27 -1 -53 -1h-83q-18 0 -36.5 -6t-32.5 -18.5t-23 -32t-9 -45.5v-76h912v41q0 16 -0.5 30t-0.5 18q0 13 -5 29t-17 29.5t-31.5 22.5t-49.5 9h-133v-97h-438v97zM955 310v-52q0 -23 0.5 -52t0.5 -58t-10.5 -47.5t-26 -30t-33 -16t-31.5 -4.5q-14 -1 -29.5 -0.5
t-29.5 0.5h-32l-45 128h-439l-44 -128h-29h-34q-20 0 -45 1q-25 0 -41 9.5t-25.5 23t-13.5 29.5t-4 30v167h911zM163 247q-12 0 -21 -8.5t-9 -21.5t9 -21.5t21 -8.5q13 0 22 8.5t9 21.5t-9 21.5t-22 8.5zM316 123q-8 -26 -14 -48q-5 -19 -10.5 -37t-7.5 -25t-3 -15t1 -14.5
t9.5 -10.5t21.5 -4h37h67h81h80h64h36q23 0 34 12t2 38q-5 13 -9.5 30.5t-9.5 34.5q-5 19 -11 39h-368zM336 498v228q0 11 2.5 23t10 21.5t20.5 15.5t34 6h188q31 0 51.5 -14.5t20.5 -52.5v-227h-327z" />
    

    
    <glyph glyph-name="shanchu" unicode="&#58880;" d="M731.918024 631.466274 293.285433 631.466274c-40.383364 0-73.105944-32.720216-73.105944-73.102948l0-24.367991 584.843455 0 0 24.367991C805.023968 598.746058 772.302411 631.466274 731.918024 631.466274M604.221575 680.201232l10.756412-76.909647L410.22547 603.291584l10.755389 76.909647L604.221575 680.201232M610.076149 728.936189l-194.947818 0c-20.108791 0-38.813548-16.276708-41.621615-36.217876l-14.254216-101.968369c-2.78453-19.916609 11.399075-36.19434 31.507865-36.19434l243.684773 0c20.107767 0 34.292396 16.276708 31.484328 36.217876l-14.255239 101.968369C648.887651 712.659481 630.183917 728.936189 610.076149 728.936189M744.102007 485.261401 281.100427 485.261401c-26.795347 0-46.761893-21.845541-44.334511-48.544623L276.699007-2.278511c2.402821-26.700105 26.344051-48.544623 53.139398-48.544623l365.527671 0c26.795347 0 50.735553 21.845541 53.139398 48.544623l39.932067 438.995289C790.8639 463.41586 770.897354 485.261401 744.102007 485.261401M415.128331 46.646781l-73.105944 0-24.368989 341.144704 97.473909 0L415.127308 46.646781zM561.339195 46.646781l-97.473909 0L463.865286 387.791485l97.473909 0L561.339195 46.646781zM683.18107 46.646781l-73.105944 0L610.075126 387.791485l97.473909 0L683.18107 46.646781z"  horiz-adv-x="1024" />

    
    <glyph glyph-name="sousuo" unicode="&#58938;" d="M440.26506241 31.236636819999944c216.56837929 0 392.12376595 182.30539781 392.12376595 407.20637405S656.83344169 845.65644794 440.26506241 845.65644794 48.14270906 663.34398572 48.14270906 438.44300949 223.69809711 31.236636819999944 440.26506241 31.236636819999944L440.26506241 31.236636819999944 440.26506241 31.236636819999944zM440.26506241 95.52494287000002c-182.37180934 0-330.2079253 153.52494542-330.20792532 342.91806662 0 189.39877297 147.83752857 342.91806661 330.20792532 342.91806661s330.21499108-153.51929363 330.21499107-342.91806661C770.48005348 249.04988829 622.63687315 95.52494287000002 440.26506241 95.52494287000002L440.26506241 95.52494287000002zM693.55508343 165.66175054999997l229.45656204-238.27947764c12.09264998-12.55047053 31.68986606-12.55047053 43.77686428 0 12.09264998 12.5561223 12.09264998 32.91071853 0 45.46684084L737.33901209 211.13424317c-12.09264998 12.5561223-31.68986606 12.5561223-43.78251743 0C681.46949782 198.58518661000005 681.46949782 178.22493862 693.55508343 165.66175054999997L693.55508343 165.66175054999997z"  horiz-adv-x="1024" />

    
    <glyph glyph-name="yonghu" unicode="&#58918;" d="M512 894.3616C230.10304 894.3616 1.6384 665.89696 1.6384 384c0-281.83552 228.46464-510.3616 510.3616-510.3616 281.83552 0 510.3616 228.51584 510.3616 510.3616C1022.3616 665.89696 793.83552 894.3616 512 894.3616zM511.8464-75.27424c-253.63456 0-459.32544 205.63968-459.32544 459.3152 0 253.68576 205.69088 459.32544 459.32544 459.32544 253.68576 0 459.3152-205.63968 459.3152-459.32544C971.17184 130.36544 765.5424-75.27424 511.8464-75.27424zM620.27776 363.5712c57.6 36.1984 96.01024 100.12672 96.01024 173.16864 0 112.95744-91.5968 204.51328-204.544 204.51328-112.98816 0-204.544-91.55584-204.544-204.51328 0-72.58112 37.90848-136.18176 94.90432-172.4928C286.53568 320.512 204.3392 208.86528 204.3392 77.9776l0-0.2048 51.73248 0c0.39936 139.86816 113.23392 253.26592 252.88704 254.52544 0.94208-0.01024 1.85344-0.14336 2.78528-0.14336 0.83968 0 1.64864 0.12288 2.48832 0.13312 139.38688-1.57696 251.84256-114.86208 252.29312-254.5152l49.83808 0 0 0.2048C816.37376 208.2304 734.95552 319.39584 620.27776 363.5712zM510.2592 384.60416c-84.82816 0-153.6 68.77184-153.6 153.6 0 84.82816 68.78208 153.6 153.6 153.6s153.6-68.78208 153.6-153.6C663.8592 453.376 595.07712 384.60416 510.2592 384.60416z"  horiz-adv-x="1024" />

    
    <glyph glyph-name="close" unicode="&#58919;" d="M744.747008 585.704448 713.714688 616.735744 512.00512 415.0272 310.295552 616.735744 279.264256 585.704448 480.9728 383.99488 279.264256 182.285312 310.295552 151.252992 512.00512 352.96256 713.714688 151.252992 744.747008 182.285312 543.03744 383.99488Z"  horiz-adv-x="1024" />

    
    <glyph glyph-name="tianbaozhong" unicode="&#59338;" d="M128 640l0-640 640 0L768 448l-64 0 0-384L192 64 192 576l384 0L576 640M256 128 339.2 320 448 211.2ZM608 582.4 384 358.4 492.8 256l217.6 217.6L608 582.4zM652.8 627.2 704 684.8c32 32 76.8 32 108.8 0 32-32 32-76.8 0-108.8l-57.6-57.6L652.8 627.2z"  horiz-adv-x="1024" />

    
    <glyph glyph-name="download" unicode="&#58888;" d="M859.990016 261.90336l0-139.674624c0-39.171072-30.993408-70.9376-69.229568-70.9376L236.429312 51.29113600000005c-38.23616 0-69.229568 31.766528-69.229568 70.9376L167.199744 261.90336l-101.376 0 0-173.45024c0-78.331904 68.68992-141.860864 145.16224-141.860864l617.2416 0c76.473344 0 138.464256 63.52896 138.464256 141.860864L966.69184 261.90336 859.990016 261.90336zM754.766848 512.356352l-135.146496-1.11104L618.540032 829.292544 409.6256 829.292544l0-318.047232L274.47296 511.245312l240.146432-319.127552L754.766848 512.356352z"  horiz-adv-x="1024" />

    
    <glyph glyph-name="daochu" unicode="&#58885;" d="M849.207-62.912h-670.1c-82.233 0-148.912 66.678-148.912 148.912v595.647c0 82.233 66.678 148.912 148.912 148.912h297.823v-69.802h-297.823c-41.155 0-74.455-33.335-74.455-74.455v-604.956c0-41.155 33.298-74.455 74.455-74.455h670.1c41.081 0 74.455 33.298 74.455 74.455v228.025h74.455v-223.369c0-82.233-66.676-148.912-148.912-148.912zM637.546 775.083l33.885-126.334c-274.917-73.619-477.929-226.606-250.273-601.719-86.818 249.327 14.326 361.996 294.41 437.030l33.226-123.931c2.327-8.946 9.449-15.706 18.54-16.942 2.98-0.369 5.959-0.22 8.874 0.582 5.671 1.49 10.614 5.237 13.67 10.613l206.497 277.17c6.186 10.909 2.471 24.979-8.438 31.267l-317.603 137.787c-7.995 4.579-17.959 3.999-25.157-1.635-7.267-5.597-10.034-14.939-7.638-23.883z"  horiz-adv-x="1024" />

    
    <glyph glyph-name="submit" unicode="&#59199;" d="M284.010 253.115h290.066v48.35h-290.066v-48.35zM574.077 398.151h-290.066v-48.345h290.066v48.345zM187.315 736.572h338.417v-145.040h145.035v-338.416l48.345 48.35v290.065l-193.38 193.38h-386.762v-725.178h338.421l48.34 48.345h-338.417l0 628.493zM574.077 494.84h-290.066v-48.345h290.066v48.345zM874.75 218.178c-13.708 13.707-35.932 13.707-49.64 0l-145.799-149.494-67.167 67.169c-13.593 13.591-35.628 13.591-49.221 0-13.591-13.591-13.591-35.63 0-49.222l85.483-85.483c1.549-2.787 3.498-5.412 5.865-7.779 13.708-13.708 35.932-13.708 49.64 0l170.84 175.171c13.705 13.706 13.705 35.93-0.001 49.639z"  horiz-adv-x="1024" />

    
    <glyph glyph-name="tianbao" unicode="&#58893;" d="M307.2 171.52v15.36c0 7.68 7.68 15.36 15.36 15.36h217.6l7.68 7.68 117.76 115.2H322.56c-7.68 0-15.36 7.68-15.36 15.36v15.36c0 7.68 7.68 15.36 15.36 15.36h391.68l151.04 148.48V770.56c0 15.36-12.8 28.16-28.16 28.16H399.36l-199.68-2.56c-20.48 2.56-33.28-15.36-33.28-30.72v-755.2c0-15.36 15.36-33.28 30.72-30.72h235.52l48.64 145.92V128c0 5.12 5.12 25.6 5.12 30.72h-166.4c-5.12-2.56-12.8 5.12-12.8 12.8z m0 373.76c0 7.68 7.68 15.36 15.36 15.36h404.48c7.68 0 15.36-7.68 15.36-15.36v-15.36c0-7.68-7.68-15.36-15.36-15.36H322.56c-7.68 0-15.36 7.68-15.36 15.36v15.36z m660.48-181.76L896 432.64c-10.24 10.24-28.16 7.68-40.96-2.56l-38.4-38.4 107.52-104.96 38.4 38.4c12.8 10.24 12.8 28.16 5.12 38.4z m-376.32-192L542.72 128c-2.56 0-5.12-5.12-5.12-10.24v-2.56l-43.52-130.56c-2.56-5.12 0-7.68 2.56-10.24 2.56-2.56 7.68-2.56 10.24-2.56l133.12 40.96h2.56c5.12 0 7.68 5.12 10.24 5.12l256 248.32-107.52 104.96-209.92-199.68z"  horiz-adv-x="1024" />

    
    <glyph glyph-name="penging" unicode="&#58952;" d="M616.067952 78.39632300000005c-7.060658-1.739582-14.325972-3.376836-21.488958-4.707105-18.726092-3.479165-31.210153-25.786749-27.730988-44.615169 1.739582-9.209553 6.958329-16.986509 14.121315-22.0006 7.367643-5.218747 16.679524-7.469971 26.196063-5.730389 8.595583 1.637254 17.191166 3.479165 25.582093 5.525732 18.521435 4.604777 29.777556 23.433197 25.172779 41.954632C653.417808 67.44718699999999 634.691716 83.00109899999995 616.067952 78.39632300000005L616.067952 78.39632300000005 616.067952 78.39632300000005zM871.888878 533.552913c2.455881-7.265314 7.060658-13.302688 12.893375-17.395823 8.697911-6.139702 19.954032-3.888478 30.800839-0.306985 18.112122 6.037374 27.935645 25.582093 22.0006 43.694214-2.762866 8.288598-5.730389 16.577196-9.004897 24.661137-7.060658 17.702808-27.219346 26.400719-44.922154 19.237734-17.702808-7.060658-30.698511-27.219346-23.535525-44.922154C862.781653 551.665034 869.637654 540.408914 871.888878 533.552913L871.888878 533.552913 871.888878 533.552913zM728.526831 127.82092499999999c-6.139702-3.990806-12.381733-7.879285-18.726092-11.563106-16.577196-9.516538-22.205256-34.996303-12.688718-51.573499 2.558209-4.502448 6.037374-8.18627 10.02818-10.949136 10.64215-7.469971 25.172779-8.595583 37.247527-1.637254 7.572299 4.40012 15.04227 9.004897 22.307585 13.81433 15.963226 10.539822 20.363346 32.02878 9.823524 47.889677C765.876686 129.66283599999997 744.490057 138.36074699999995 728.526831 127.82092499999999L728.526831 127.82092499999999 728.526831 127.82092499999999zM959.072649 441.150395c-0.716299 19.135405-16.884181 33.973019-35.917258 33.25672-19.033077-0.716299-33.973019-16.884181-33.154392-35.917258 0.306985-7.265314 0.409313-14.735285 0.204657-22.0006-0.306985-11.972419 5.62806-22.61457 14.735285-29.061257 5.423404-3.78615 11.972419-6.139702 19.135405-6.344359 19.135405-0.409313 34.893974 14.735285 35.303288 33.870691C959.481963 423.652243 959.481963 432.452483 959.072649 441.150395L959.072649 441.150395 959.072649 441.150395zM866.260817 214.49305500000003c-15.349256 11.460777-36.940542 12.688718-48.401319-2.660538-4.40012-5.832717-9.004897-11.665434-13.712002-17.191166-12.381733-14.530629-10.64215-40.624363 3.888478-53.006096 0.818627-0.716299 1.637254-1.330269 2.558209-1.944239 14.4283-10.232837 34.586989-7.879285 46.252423 5.832717 5.62806 6.651344 11.153792 13.507345 16.372539 20.568002C884.679924 181.338663 881.507745 203.03227700000002 866.260817 214.49305500000003L866.260817 214.49305500000003 866.260817 214.49305500000003zM917.118017 339.538323c-18.21445 5.730389-41.954632-4.40012-47.68502-22.61457-2.148896-6.958329-4.604777-13.916658-7.265314-20.772659-5.730389-15.04227 4.093135-31.721795 16.679524-40.624363 2.353553-1.637254 4.809433-2.967523 7.674628-4.093135 17.805136-6.856001 37.861497 2.148896 44.615169 19.954032 3.069851 8.18627 6.037374 16.474868 8.595583 24.763466C945.462976 314.46787200000006 935.332467 333.80793400000005 917.118017 339.538323L917.118017 339.538323 917.118017 339.538323zM473.72919 77.680024c-26.605376 6.958329-69.173978 23.535525-97.31428 36.735885-0.306985 0.204657-0.61397 0.409313-1.023284 0.511642-6.651344 3.172179-13.20036 6.446687-19.647047 9.925852 0 0-0.102328 0-0.102328 0.102328-11.767763 6.446687-23.22854 13.609673-34.382332 21.488958C191.405216 271.694614 132.259418 461.104427 246.867193 623.8065349999999c24.968122 35.405616 35.610273 47.582692 69.173978 76.439292 0.409313 0.306985 9.823524 11.051464 31.619466 25.377436 138.859598 63.955231 255.820925 70.197262 381.582492-13.712002l-27.01469-26.196063c-7.469971-10.846807-2.865194-18.82842 10.232837-17.60048L829.934246 678.654542c13.20036 1.22794 21.079644 12.58639 17.498151 25.275107l-31.517138 113.584491c-3.479165 12.688718-12.58639 14.223643-20.056361 3.376836l-27.117018-39.191766c-92.30019 62.010992-203.121815 85.648846-313.022484 66.615769-11.051464-1.944239-22.0006-4.297792-32.745078-6.958329-0.102328 0-0.102328 0-0.204657 0-0.409313-0.102328-0.818627-0.204657-1.22794-0.306985C326.683322 816.593185 244.001999 761.335865 184.958529 682.440692c-0.511642-0.61397-1.023284-1.125612-1.432597-1.841911-1.944239-2.660538-3.888478-5.321075-5.832717-8.083941-3.069851-4.40012-6.242031-9.004897-9.107225-13.507345-0.409313-0.511642-0.61397-1.125612-0.920955-1.637254-48.708304-75.518337-72.243829-162.702109-68.150695-251.523134 0-0.306985 0-0.61397 0-0.920955 0.409313-8.697911 1.125612-17.498151 2.046567-26.093734 0-0.511642 0.204657-1.125612 0.306985-1.637254 0.920955-8.697911 2.148896-17.395823 3.683821-26.196063 15.451584-89.025682 57.406216-169.148796 120.338163-231.569102 0.102328-0.102328 0.306985-0.306985 0.409313-0.511642 0.102328-0.102328 0.102328-0.102328 0.204657-0.102328 16.884181-16.679524 35.303288-32.131108 55.154992-46.047767 51.880484-36.531228 109.593684-60.680723 171.502348-71.834516 18.82842-3.376836 36.735885 9.107225 40.112721 27.935645C499.004297 44.52563199999997 491.125012 70.92635199999995 473.72919 77.680024L473.72919 77.680024 473.72919 77.680024zM505.450984 655.732987c-11.767763 0-27.833317-17.293495-27.833317-29.061257l0-236.890177 209.977816-103.863296c3.172179-1.637254 6.446687-2.353553 9.823524-2.353553 7.674628 0 28.24263 6.139702 37.145198 16.781853 14.939942 24.251824-6.037374 51.061857-16.474868 56.48526l-162.804437 84.318577L555.284901 627.7973420000001c0 11.767763-21.591286 28.754272-33.359049 28.754272L505.450984 655.732987 505.450984 655.732987z"  horiz-adv-x="1024" />

    
    <glyph glyph-name="chakan" unicode="&#59514;" d="M924.344303 280.023904C823.367517 143.51895 675.607218 57.212282 510.627746 57.212282c-164.965146 0-312.725444 86.306668-413.717579 222.810598-44.591591 60.261479-44.591591 149.832494 0 210.108299 100.992135 136.50393 248.752434 222.810598 413.717579 222.810598 164.980495 0 312.740794-86.306668 413.71758-222.810598 44.591591-60.274782 44.591591-149.84682-0.001023-210.107275z m-32.869619 164.39721C795.042401 585.62816 656.248312 666.60545 510.686075 666.60545s-284.356326-80.977289-380.788609-222.185359c-22.976294-33.643238-22.976294-82.47234 0-116.115577 96.432283-141.208069 235.226373-222.200708 380.788609-222.200708s284.356326 80.992639 380.788609 222.216057c22.976294 33.628912 22.976294 82.458013 0 116.101251zM510.925528 176.527738c-115.27442 0-208.721719 93.448322-208.721718 208.721719s93.448322 208.721719 208.721718 208.721719 208.721719-93.448322 208.721719-208.721719-93.447299-208.721719-208.721719-208.721719z m0.202615 367.099843c-87.584778 0-158.580738-70.996984-158.580738-158.580739s70.996984-158.580738 158.580738-158.580738c87.584778 0 158.580738 70.996984 158.580738 158.580738s-70.995961 158.580738-158.580738 158.580739z"  horiz-adv-x="1024" />

    
    <glyph glyph-name="exit" unicode="&#58936;" d="M902.91 404.389L724.385 582.914c-11.286 11.286-29.855 11.286-41.142 0s-11.286-29.855 0-41.142l128.159-128.159h-401.59c-16.02 0-29.127-13.107-29.127-29.127s13.107-29.127 29.127-29.127h402.925L683.243 225.865c-11.286-11.286-11.286-29.855 0-41.142s29.855-11.286 41.142 0L902.91 363.24800000000005c11.408 11.286 11.408 29.855 0 41.142zM641.858 130.59400000000005a29.057 29.057 0 0 1-29.127-29.127v-32.039c0-21.36-17.476-38.836-38.836-38.836H208.956c-21.36 0-38.836 17.476-38.836 38.836V697.723c0 21.36 17.476 38.836 38.836 38.836h364.939c21.36 0 38.836-17.476 38.836-38.836v-32.039c0-16.142 12.986-29.127 29.127-29.127s29.127 12.986 29.127 29.127v32.039c0 53.521-43.569 97.09-97.09 97.09H208.956c-53.521 0-97.09-43.569-97.09-97.09v-628.295c0-53.521 43.569-97.09 97.09-97.09h364.939c53.521 0 97.09 43.569 97.09 97.09v32.039c0 16.02-13.107 29.127-29.127 29.127z"  horiz-adv-x="1024" />

    
    <glyph glyph-name="evolve" unicode="&#58933;" d="M809.984 722.24V632.3199999999999a338.496 338.496 0 0 0-23.68-116.224c-11.328-27.52-26.304-53.76-45.056-76.288-11.264-13.76-24.96-26.24-37.504-38.72-9.984-10.048-21.248-17.536-32.512-26.24 8.768-6.272 17.536-12.544 26.24-20.032 11.264-9.984 23.808-21.248 33.792-32.512 9.984-11.264 19.968-24.96 28.736-37.504 20.032-30.016 33.728-61.248 41.28-96.256 3.712-14.976 6.208-29.952 7.488-43.712 1.28-27.52 1.28-55.04 2.496-82.56v-16.192h42.496c22.464 1.28 38.72-18.752 38.72-40-1.28-17.536-12.48-33.792-32.512-36.288-3.712 0-7.488-1.28-12.48-1.28H172.48c-21.248 0-36.224 11.328-40 31.36-3.712 22.4 11.264 46.208 36.288 44.928h48.704v4.992 72.512c0 26.24 5.056 52.48 11.264 77.504a295.04 295.04 0 0 0 26.24 65.024c8.768 16.256 20.032 29.952 30.08 44.992 7.424 9.984 16.192 18.752 24.96 27.52 13.76 13.696 27.52 24.96 43.712 34.944l1.28 1.28c-11.264 9.984-23.744 18.752-35.008 28.8a278.976 278.976 0 0 0-61.248 76.16 321.92 321.92 0 0 0-35.008 95.04c-2.496 12.48-4.992 23.744-4.992 36.224-1.28 23.744-1.28 47.552-1.28 71.296v41.216h-46.208a44.416 44.416 0 0 0-12.544 2.56 36.736 36.736 0 0 0-26.24 27.456c-3.712 17.472 2.56 33.728 17.536 42.496a40.704 40.704 0 0 0 16.256 4.992h692.48c13.76 0 23.744-8.768 30.016-19.968a42.432 42.432 0 0 0-8.768-47.552 39.68 39.68 0 0 0-24.96-9.984h-45.056zM734.976 46.08000000000004v78.72c0 9.984-1.28 20.032-2.496 30.016a215.04 215.04 0 0 1-19.968 62.528 299.328 299.328 0 0 1-26.24 42.496 213.76 213.76 0 0 1-44.992 43.712 187.456 187.456 0 0 1-71.296 33.792c-19.968 4.992-32.512 23.68-28.736 46.208a39.488 39.488 0 0 0 27.52 30.016c18.752 4.992 37.504 12.48 53.76 22.464a224 224 0 0 1 61.248 52.48c16.256 21.312 29.952 43.776 38.72 68.8 9.984 28.8 13.76 57.472 13.76 87.488V717.248v4.992H292.48v-107.52c0-11.2 2.56-23.68 4.992-34.944 5.056-22.528 15.04-43.776 26.24-63.808 13.76-23.68 32.512-44.992 53.76-62.464a219.52 219.52 0 0 1 71.296-38.784c9.984-2.496 19.968-4.992 27.52-13.696a41.408 41.408 0 0 0 0-52.48c-6.272-7.552-15.04-10.048-25.024-12.544-27.52-7.488-52.48-21.248-73.792-38.72a208.96 208.96 0 0 1-44.992-48.768c-14.976-21.248-26.24-44.992-33.728-71.232a192.384 192.384 0 0 1-8.768-52.48V44.672000000000025c150.016 1.28 297.536 1.28 444.992 1.28zM386.24 537.28h251.264c-1.28-15.04-9.984-26.24-21.248-35.008-1.28 0-1.28-1.28-2.56-1.28-11.2-11.264-22.4-22.464-34.944-33.728-13.76-12.544-24.96-24.96-35.008-40-6.272-9.984-8.768-21.248-11.264-32.512a153.856 153.856 0 0 1-4.992-47.488c1.28-24.96 9.984-47.488 31.232-63.744 5.056-3.776 8.768-7.488 13.76-12.544 18.752-17.472 38.784-34.944 56.32-53.76 21.184-21.248 37.44-46.208 46.208-74.944 3.712-12.544 6.272-25.024 6.272-37.504 0-2.56 0-6.272 1.28-8.768H342.464c1.28 9.984 1.28 21.248 2.496 31.232 2.496 16.256 7.488 31.296 16.256 44.992 7.488 12.544 14.976 25.024 24.96 36.288 8.768 9.984 17.536 18.752 26.24 27.52 17.536 16.192 35.008 31.232 51.264 46.208 16.256 15.04 27.52 31.232 30.016 53.76 1.28 14.976 1.28 30.016-2.56 44.992-2.432 11.264-4.928 23.744-8.704 35.008a58.112 58.112 0 0 1-16.256 26.24l-41.216 41.28c-8.768 8.704-18.752 17.472-27.52 26.24-6.272 8.768-11.264 16.256-11.264 27.52z"  horiz-adv-x="1024" />

    
    <glyph glyph-name="zhankai" unicode="&#59025;" d="M666.18334804-104.43579747000001c-76.11885038 0-135.9665683 59.81616355-135.96656832 135.96656826l-1e-8 489.4264889c0 76.11885038 59.81616355 135.9665683 135.96656833 135.96656832l489.42648886 0c76.11885038 0 135.9665683-59.81616355 135.96656834-135.96656832l0-489.42648889c0-76.11885038-59.81616355-135.9665683-135.96656833-135.9665683l-489.42648887 3e-8M666.18334804-131.6235284500001l489.42648887 0c89.74184295 0 163.14823111 73.39303822 163.14823112 163.14823108l0 489.42648891c0 89.74184295-73.39303822 163.14823111-163.14823112 163.14823112l-489.42648887 0c-89.74184295 0-163.14823111-73.39303822-163.14823112-163.14823112l3e-8-489.42648891c0-89.74184295 73.39303822-163.14823111 163.14823109-163.14823108zM731.44142686 382.25152931l179.42907259-182.16459376 179.42907259 182.16459376 21.81863349-21.81863346-201.20644267-198.45635793-201.20644267 198.45635793z"  horiz-adv-x="1820" />

    
    <glyph glyph-name="arrow" unicode="&#58890;" d="M341.12 469.333333c-23.466667 0-29.141333-13.354667-12.373333-30.122666l167.893333-167.893334a21.461333 21.461333 0 0 1 30.677333 0l167.893334 167.893334c16.64 16.64 10.666667 30.122667-12.373334 30.122666H341.12z"  horiz-adv-x="1024" />

    
    <glyph glyph-name="zhenghe" unicode="&#58886;" d="M843.026252 404.436448c0 17.070794-13.846356 30.922267-30.919197 30.922267-17.072841 0-30.919197-13.850449-30.919196-30.922267 0-4.454452 0.947582-8.720615 2.653433-12.518105 1.990331-11.568477 4.64888-32.05302 4.64888-62.878072 0-191.004195-140.095735-331.086627-331.216587-331.086628-191.125969 0-331.219657 140.082432-331.219658 331.086628 0 191.009312 140.093688 331.086627 331.219658 331.086627 30.541597 0 34.713616 1.424442 61.366649-4.167926l0.094144 0.663102c0.853437-0.098237 1.708921-0.286526 2.562359-0.286526 16.314571 0 29.594015 13.279445 29.594015 29.589923 0 14.034645-9.770528 25.699312-22.859637 28.738531l0.284479 1.799995c-33.5757 5.977132-35.094286 5.591345-71.040986 5.591345-217.113853 0-393.157311-175.921685-393.157312-392.919904 0-217.087247 176.043459-393.016095 393.157312-393.016095 217.111806 0 393.152195 175.928848 393.152195 393.016095 0 34.046421-2.749624 50.075489-7.492648 74.357522-0.002047 0.280386 0.092098 0.663102 0.092097 0.943488z m-390.023948 51.022047c1.137916-0.090051 2.183735-0.376577 3.417843-0.376577 17.070794 0 30.919197 13.84431 30.919197 30.915104 0 16.791431-13.373589 30.351262-30.066783 30.826076v0.851391c-104.243179 0-188.753945-84.500533-188.753945-188.635242 0-104.226806 84.510766-188.637288 188.753945-188.637288 103.669104 0 187.708126 83.552951 188.655708 186.933484 0.094144 1.041726 0.284479 1.990331 0.284479 3.128247 0 17.070794-13.846356 30.915104-30.919197 30.915103-17.073864 0-30.924313-13.84431-30.924313-30.915103 0-0.474814 0.096191-0.949628 0.09619-1.424443h-0.474814c0-78.148871-48.562019-126.706797-126.718053-126.706796-78.158081 0-126.722146 48.556902-126.722146 126.706796 0 76.729545 46.952358 124.619252 122.451889 126.419248z m506.881423 188.0714l-173.292812 14.795984-14.793937 173.554778-61.939701-62.495356v-0.188289l-125.488039-110.871133h-0.284479v-154.586774L410.986375 345.635227l33.19503-47.889706L631.987768 470.638219h154.603147v0.188289l0.190335-0.188289 125.678374 125.568881-0.190335 0.190335h0.190335l47.424103 47.13246zM753.868653 517.772726h-107.84624V625.509473l78.632895 78.623685v-107.834984h107.844193l-78.630848-78.525448z"  horiz-adv-x="1024" />

    
    <glyph glyph-name="clean" unicode="&#59643;" d="M879.30655 828.388113c-7.362688 3.827165-13.541411 4.582365-22.673395 2.090614-9.92914-2.838651-13.927197-8.414647-18.927072-17.45044L666.396439 504.772644l-148.607596 69.176522-0.73064 0.39295a5.071506 5.071506 0 0 0-0.956792 0.450255 5.373381 5.373381 0 0 1-0.785899 0.336668l-1.068332 0.393972c-0.257873 0.121773-0.520863 0.23536-0.787945 0.337691-0.337691 0.11154-0.731664 0.167822-1.068332 0.337691l-0.843204 0.225128-1.01205 0.337691-0.843204 0.225127-0.956792 0.225128-0.955768 0.167822-1.013073 0.225127-0.955768 0.111541a5.564739 5.564739 0 0 0-0.956791 0.113587l-0.955768 0.056281c-0.281409 0-0.506537 0.168846-0.843204 0.168846h-1.013074l-0.955768 0.056282h-3.825118c-0.167822-0.113587-0.562818-0.113587-0.786923-0.168846l-0.956791-0.056282c-0.281409-0.11154-0.674359-0.11154-0.955768-0.168845l-0.899486-0.11154a4.799306 4.799306 0 0 0-0.956791-0.225128l-0.899487-0.225127c-0.281409 0-0.562818-0.11154-0.955768-0.224104-0.260943-0.062422-0.523933-0.118704-0.787945-0.168846a6.216585 6.216585 0 0 0-0.956792-0.281409l-0.899486-0.281409a5.003967 5.003967 0 0 1-0.843204-0.281409l-0.843204-0.337691a7.958252 7.958252 0 0 0-0.899486-0.28141c-0.270153-0.154519-0.552585-0.286526-0.843205-0.393973l-0.843204-0.392949-0.899486-0.39295a3.602038 3.602038 0 0 0-0.787946-0.450254c-0.337691-0.11154-0.618077-0.337691-0.843204-0.450255l-0.787946-0.449232-0.843204-0.506536-0.787946-0.450255-0.786923-0.562818-0.787945-0.562819-0.731664-0.562818-0.787946-0.562819-0.618077-0.618076c-0.337691-0.167822-0.562818-0.39295-0.787946-0.618077l-0.73064-0.618077a3.835352 3.835352 0 0 0-0.675383-0.675382l-0.562818-0.618077-0.786922-0.787946-0.562819-0.674359-0.731664-0.731664c-0.169869-0.23843-0.358157-0.463558-0.562818-0.674359l-0.562819-0.843204c-0.183172-0.24764-0.37146-0.491187-0.562818-0.731664l-0.618077-0.899486-0.506537-0.730641-0.562818-0.956791-0.450255-0.787946-0.505513-0.843204-0.393973-0.730641c-60.233849-117.093858-174.121689-213.208916-318.266647-267.818675-15.742543-5.929036-25.871227-21.327748-25.083282-38.130435a38.865169 38.865169 0 0 1 18.559705-34.982746l440.139345-268.887006a37.708833 37.708833 0 0 1 12.148692-4.837169c15.117302-8.851599 34.289967-6.478552 46.791699 5.792937C767.105119 72.95584799999995 840.105736 231.162056 840.61125 386.7793a39.311331 39.311331 0 0 1-6.6914 21.933545 38.518269 38.518269 0 0 1-15.635095 14.285354l-93.190449 46.905286 169.733753 305.387316c10.356882 18.798135 5.412266 41.391712-13.341867 51.827389l-2.179642 1.269923zM609.482195 16.740522000000055l-88.898703 52.928466 49.859572 46.650483c15.276938 15.065114 26.875091 40.942481 12.758581 55.05899-12.795421 12.795421-36.354999 11.175527-51.763944-3.774976l-69.468164-63.724347-98.017385 63.708997 60.10696 35.627429c17.6111 12.33084 23.400966 37.062104 12.856819 52.018747-9.228175 15.798824-36.604686 15.300474-54.216809 2.969635l-80.143295-49.649794-78.147848 43.540656c71.112618 34.403554 144.655588 86.126566 200.288653 142.213979l313.486784-173.804465c-26.770713-67.320245-71.962985-147.505495-126.572744-205.602681l-2.128477 1.838881zM768.691243 354.284211c-1.462305-24.690332-6.160303-47.238884-11.670807-71.871911L463.142246 447.782675c11.040451 14.663978 37.823444 44.149523 47.354517 59.836807L768.691243 375.15658800000006v-20.872377z"  horiz-adv-x="1024" />

    
    <glyph glyph-name="refresh" unicode="&#58983;" d="M964.38125 704.784375a26.053125 26.053125 0 0 1-33.871875-14.49375L882.55625 570.5625C811.0625 724.5 657.678125 824.465625 483.715625 824.465625 240.846875 824.465625 43.25 626.86875 43.25 384s197.596875-440.465625 440.465625-440.465625c194.64375 0 363.84375 124.940625 421.0125 310.921875a26.04375 26.04375 0 1 1-49.790625 15.309375C804.5 105.78750000000002 655.34375-4.3781249999999545 483.715625-4.3781249999999545 269.5625-4.3781249999999545 95.328125 169.84687499999995 95.328125 384S269.5625 772.378125 483.715625 772.378125c154.359375 0 290.296875-89.26875 352.81875-226.490625L710.834375 596.25a26.053125 26.053125 0 1 1-19.378125-48.365625l181.040625-72.50625a26.090625 26.090625 0 0 1 33.871875 14.49375L978.875 670.875a26.071875 26.071875 0 0 1-14.49375 33.909375z"  horiz-adv-x="1024" />

    
    <glyph glyph-name="retain" unicode="&#58891;" d="M428.8-128C224 160 0 179.20000000000005 0 179.20000000000005l128 172.8s115.2-19.2 288-307.2c256 550.4 582.4 678.4 608 691.2v-211.2S710.4 441.6 428.8-128z"  horiz-adv-x="1024" />

    
    <glyph glyph-name="riqi" unicode="&#58881;" d="M550.342 422.366h-76.707v-76.707h76.707v76.707zM550.342 288.135h-76.707v-76.707h76.707v76.707zM857.168 729.168h-76.707v57.524c0 10.597-8.587 19.183-19.183 19.183s-19.159-8.587-19.159-19.183v-57.524h-460.241v57.524c0 10.597-8.587 19.183-19.183 19.183s-19.159-8.587-19.159-19.183v-57.524h-76.707c-42.362 0-76.707-34.346-76.707-76.707v-613.629c0-42.362 34.346-76.707 76.707-76.707h690.337c42.362 0 76.707 34.346 76.707 76.707v613.629c0 42.362-34.346 76.707-76.707 76.707zM895.509 38.832c0-21.168-17.172-38.342-38.342-38.342h-690.337c-21.193 0-38.366 17.172-38.366 38.342v460.217h767.043v-460.217zM895.509 537.413h-767.043v115.047c0 21.193 17.172 38.366 38.366 38.366h76.707v-57.524c0-10.597 8.562-19.183 19.159-19.183s19.183 8.587 19.183 19.183v57.524h460.241v-57.524c0-10.597 8.562-19.183 19.159-19.183s19.183 8.587 19.183 19.183v57.524h76.707c21.168 0 38.342-17.172 38.342-38.366v-115.047zM742.121 288.135h-76.707v-76.707h76.707v76.707zM742.121 422.366h-76.707v-76.707h76.707v76.707zM550.342 153.879h-76.707v-76.707h76.707v76.707zM358.587 153.879h-76.707v-76.707h76.707v76.707zM358.587 422.366h-76.707v-76.707h76.707v76.707zM358.587 288.135h-76.707v-76.707h76.707v76.707z"  horiz-adv-x="1024" />

    
    <glyph glyph-name="import" unicode="&#58958;" d="M960.51 630.12c-170.888 85.953-285.586 12.556-405.787-198.253l107.088-62.598c7.67-4.468 12.321-12.728 11.302-21.439-0.337-2.821-1.214-5.586-2.628-8.007-2.688-4.778-7.333-8.416-13.123-9.832L351.715 211.93200000000002c-11.578-2.958-23.761 4.173-27.059 15.741l-52.631 327.585c-2.414 8.48 0.537 17.502 7.402 22.676 6.932 5.212 16.281 5.32 23.969 0.809l109.103-63.742c122.502 214.745 292.993 355.352 548.019 138.92v-23.83l-0.008 0.029zM822.654-64.15099999999995H202.356c-76.125 0-137.838 61.727-137.838 137.844V625.062c0 76.125 61.715 137.838 137.838 137.838H340.2v-64.613H202.356c-38.097 0-68.925-30.864-68.925-68.925V69.37c0-38.088 30.832-68.925 68.925-68.925H822.66c38.032 0 68.925 30.832 68.925 68.925V418.291h68.923v-344.606c0-76.125-61.731-137.838-137.856-137.838l0.002 0.002z"  horiz-adv-x="1024" />

    
    <glyph glyph-name="look" unicode="&#59236;" d="M839.078849 97.91326300000003c9.058306 20.799722 13.804401 42.97272 13.92822 65.395406 0 99.497085-88.252996 180.131567-197.121519 180.131567-108.865453 0-197.120496-80.634482-197.120497-180.131567s88.255043-180.130543 197.120497-180.130544c47.719838 0 90.816378 16.051581 124.91908 41.846061l115.611088-89.378634 63.646576 68.768223-120.983445 93.499488z m-183.193299-24.670889c-35.725666-0.74906-69.078285 16.239869-87.191828 44.407395-18.11252 28.169573-18.11252 63.021336 0 91.253331 18.052145 28.107151 51.404764 45.157479 87.130429 44.471864 53.589522-1.125637 96.374978-41.10007 96.374978-90.067319 0-48.967248-42.784432-88.940658-96.313579-90.065271z m-246.337432 90.066295c0 124.356262 110.302175 225.226624 246.338455 225.226624 35.102473 0 68.331271-6.994298 98.561783-19.049868V741.616864c0 49.779753-44.157709 90.066295-98.561783 90.066295H163.210687c-54.464449 0-98.56076-40.286542-98.56076-90.066295v-668.37449c0-49.716308 44.096311-90.065272 98.56076-90.065272h346.21007c-62.709227 42.09677-99.746772 108.99132-99.872639 180.131567z m-197.120496 533.275559h394.179594c27.169803 0 49.278333-10.118452 49.278334-22.547529s-22.10853-22.548552-49.278334-22.548552H212.427622c-27.16878 0-49.216935 10.119475-49.216935 22.548552s21.98471 22.547529 49.216935 22.547529z m0-135.161353h197.120496c27.170826 0 49.217958-10.055007 49.217959-22.485107 0-12.429077-22.047132-22.485107-49.217959-22.485107H212.427622c-27.16878 0-49.216935 10.055007-49.216935 22.485107 0 12.4301 21.98471 22.485107 49.216935 22.485107z m98.56076-180.13259h-98.56076c-27.16878 0-49.216935 10.118452-49.216935 22.485107 0 12.492522 22.048155 22.610974 49.216935 22.610974h98.56076c27.231201 0 49.28038-10.118452 49.28038-22.610974-0.001023-12.366655-22.049179-22.485107-49.28038-22.485107z"  horiz-adv-x="1024" />

    


  </font>
</defs>
</svg>
